<?xml version="1.0" encoding="UTF-8"?>
<svg version="1.1" xmlns="http://www.w3.org/2000/svg" width="512" height="512">
<path d="M0 0 C6.30230295 3.16861377 12.09276633 7.04960188 17.93847656 10.97460938 C19.67550996 12.13346086 21.41348642 13.29089089 23.15142822 14.44837952 C27.73675841 17.50268208 32.31933374 20.56111601 36.90136719 23.62036133 C40.57834634 26.07487348 44.25750332 28.52609155 47.93847656 30.97460938 C49.35241699 31.91554443 49.35241699 31.91554443 50.79492188 32.87548828 C53.04174737 34.36120713 55.29868502 35.82898586 57.56347656 37.28710938 C58.17707031 37.69509766 58.79066406 38.10308594 59.42285156 38.5234375 C62.54689791 40.51103226 62.54689791 40.51103226 66.14941406 40.83007812 C68.20560929 39.89871377 68.20560929 39.89871377 70.93847656 37.97460938 C74.70473745 37.56374455 77.04381981 37.46993121 80.37597656 39.34960938 C82.78216554 43.39200686 82.25390285 47.38340452 81.93847656 51.97460938 C85.33022819 54.20027665 85.33022819 54.20027665 88.93847656 55.97460938 C91.23983718 55.49078845 91.23983718 55.49078845 92.93847656 53.97460938 C96.65906017 51.49422031 98.53644227 51.51123734 102.93847656 51.97460938 C105.37597656 53.47460938 105.37597656 53.47460938 106.93847656 55.97460938 C107.27099418 58.73287029 107.11917171 61.17383463 106.93847656 63.97460938 C106.93847656 64.63460937 106.93847656 65.29460937 106.93847656 65.97460938 C110.33022819 68.20027665 110.33022819 68.20027665 113.93847656 69.97460938 C116.23983718 69.49078845 116.23983718 69.49078845 117.93847656 67.97460938 C121.65906017 65.49422031 123.53644227 65.51123734 127.93847656 65.97460938 C130.37597656 67.47460938 130.37597656 67.47460938 131.93847656 69.97460938 C132.41964727 73.45278624 132.54137859 76.76880532 130.93847656 79.97460938 C136.33149856 81.954271 136.33149856 81.954271 141.93847656 82.97460938 C142.55722656 82.50023437 143.17597656 82.02585937 143.81347656 81.53710938 C146.94128473 79.23725043 149.15832951 79.50209099 152.93847656 79.97460938 C155.37597656 81.41210937 155.37597656 81.41210937 156.93847656 83.97460938 C157.25736033 87.01184657 157.13253674 89.93408206 156.93847656 92.97460938 C157.50332764 93.14476562 158.06817871 93.31492187 158.65014648 93.49023438 C162.45640448 94.68923155 166.03062984 95.90227216 169.48925781 97.91210938 C183.2648587 105.6659959 198.07590615 105.5043882 213.46615601 106.48989868 C232.23696409 107.75376094 255.72303586 110.77554706 269.18847656 125.22460938 C276.50901393 134.41595074 279.33422043 144.64953403 279.31347656 156.22460938 C279.31105957 157.61969727 279.31105957 157.61969727 279.30859375 159.04296875 C279.16780919 166.93242485 278.2774242 174.1259985 272.94238281 180.27539062 C270.51840241 183.54044024 269.63596193 186.79704331 268.62597656 190.66210938 C266.55991671 197.8049356 263.85259537 203.292971 258.93847656 208.97460938 C258.29265625 209.73 257.64683594 210.48539063 256.98144531 211.26367188 C237.88144569 231.88741915 207.97257391 238.95264041 180.93847656 240.97460938 C176.76699934 241.11098896 172.59906028 241.11404036 168.4256134 241.10832214 C167.20006436 241.1105877 165.97451531 241.11285326 164.71182841 241.11518747 C161.33553299 241.12039617 157.95929112 241.12117689 154.58299553 241.11999309 C150.93102336 241.11978799 147.27905895 241.12531849 143.62709045 241.13005066 C136.47923919 241.13833622 129.33139617 241.14110462 122.1835405 241.14166304 C116.36446718 241.14213951 110.54539655 241.14420084 104.72632408 241.14736366 C88.18998086 241.15616715 71.65364411 241.16078391 55.11729852 241.16003319 C54.22692253 241.15999323 53.33654654 241.15995328 52.41918945 241.15991211 C51.52771195 241.15987123 50.63623444 241.15983035 49.71774247 241.15978823 C35.3006179 241.1593826 20.88351956 241.16893194 6.46640257 241.18305048 C-8.37447979 241.19746792 -23.21534942 241.20431761 -38.05623895 241.2034567 C-46.37290925 241.20312641 -54.68955211 241.2057986 -63.00621605 241.21663475 C-70.0939564 241.22581104 -77.18165691 241.22785753 -84.26940068 241.22112533 C-87.87529689 241.21789467 -91.48111699 241.2176754 -95.08700562 241.22647858 C-139.87473713 241.32867586 -196.71668236 237.55936097 -232.06152344 205.97460938 C-233.58484153 204.45129129 -233.28835084 203.08846608 -233.34716797 200.96679688 C-233.28093441 195.71373675 -231.70382908 191.79817827 -229.49121094 187.09960938 C-228.75253462 185.43832665 -228.01426559 183.77686277 -227.27636719 182.11523438 C-226.10804892 179.53775816 -224.93176692 176.96429611 -223.74658203 174.39453125 C-222.59828384 171.88863208 -221.48114248 169.37049328 -220.36621094 166.84960938 C-220.0059079 166.09309082 -219.64560486 165.33657227 -219.27438354 164.55712891 C-217.05950303 159.50472635 -216.90927359 156.26198009 -218.47846985 150.95788574 C-227.08047981 121.69785993 -203.80967903 77.19338773 -192.24902344 51.78710938 C-191.81750977 50.83835938 -191.38599609 49.88960937 -190.94140625 48.91210938 C-182.56215928 30.95933195 -171.73690139 18.67927923 -153.44042969 10.85351562 C-145.97221278 8.2905315 -135.61320297 6.15261248 -128.06152344 9.09960938 C-118.13472956 15.30385555 -113.67248741 24.13853307 -108.00292969 34.07885742 C-97.65512963 52.60311321 -97.65512963 52.60311321 -80.03808594 63.50195312 C-67.05331064 66.60700809 -53.9228685 59.39759748 -43.06152344 52.97460938 C-43.47144531 52.2965625 -43.88136719 51.61851562 -44.30371094 50.91992188 C-50.00985952 41.06384706 -52.44455746 32.30175809 -50.06152344 20.97460938 C-46.92283014 11.18188627 -42.45987621 0.98706419 -33.06152344 -4.02539062 C-21.94797172 -7.72990787 -10.22173919 -4.82485986 0 0 Z M-28.31152344 12.97460938 C-28.88902344 13.96460938 -29.46652344 14.95460937 -30.06152344 15.97460938 C-30.43277344 16.544375 -30.80402344 17.11414063 -31.18652344 17.70117188 C-34.45994164 23.22506509 -35.16766297 28.65772992 -34.06152344 34.97460938 C-32.71651685 37.92990066 -31.0904405 40.44570918 -29.06152344 42.97460938 C-24.5829429 41.52031016 -21.42531133 39.03117667 -17.93652344 35.97460938 C-17.0969812 35.25180786 -17.0969812 35.25180786 -16.24047852 34.5144043 C-10.75653806 29.7688801 -5.3881236 24.89557666 -0.06152344 19.97460938 C-6.21186184 14.63442686 -14.39621152 10.87544698 -22.62402344 10.34960938 C-26.1199401 10.67749683 -26.1199401 10.67749683 -28.31152344 12.97460938 Z M-171.83105469 47.08398438 C-174.82229751 52.28086446 -174.82229751 52.28086446 -176.06152344 57.97460938 C-171.19227066 59.61440526 -166.32161103 61.24993376 -161.44970703 62.88183594 C-159.79894106 63.43540541 -158.14853825 63.99005922 -156.49853516 64.54589844 C-131.6779773 73.69281026 -131.6779773 73.69281026 -106.06152344 70.97460938 C-105.40152344 70.64460938 -104.74152344 70.31460938 -104.06152344 69.97460938 C-105.43841109 66.90686644 -107.05149966 64.73629897 -109.35058594 62.29492188 C-113.07388793 58.12859896 -115.75194282 53.72861265 -118.43652344 48.84960938 C-119.38949995 47.1834143 -120.34394356 45.51805753 -121.29980469 43.85351562 C-122.64534029 41.49127043 -123.97932359 39.12639604 -125.27392578 36.73583984 C-129.05704164 29.09480495 -129.05704164 29.09480495 -135.42089844 23.94335938 C-150.02908569 23.01290159 -164.98370574 35.05199815 -171.83105469 47.08398438 Z M10.83691406 30.91601562 C9.5878125 32.21345703 9.5878125 32.21345703 8.31347656 33.53710938 C4.00942624 37.91462855 -0.33992399 42.0542039 -5.06152344 45.97460938 C-5.58343262 46.4103125 -6.1053418 46.84601563 -6.64306641 47.29492188 C-25.21130563 62.72290626 -48.76161841 80.15469669 -73.93652344 80.09960938 C-75.10957031 80.1021875 -76.28261719 80.10476562 -77.49121094 80.10742188 C-81.06152344 79.97460938 -81.06152344 79.97460938 -84.58886719 79.26367188 C-88.99055417 78.89727723 -90.9443872 80.05053153 -94.74902344 82.22460938 C-110.32497166 90.59349739 -125.20050049 90.50848965 -141.87948608 85.63412476 C-149.92510261 83.20235711 -157.88673449 80.49001605 -165.85107422 77.80639648 C-168.29891779 76.98358994 -170.75018371 76.17175565 -173.20214844 75.36132812 C-174.32233368 74.9786805 -174.32233368 74.9786805 -175.46514893 74.58830261 C-179.72210495 73.134016 -179.72210495 73.134016 -184.06152344 73.97460938 C-185.29122222 77.48651747 -185.29122222 77.48651747 -186.06152344 80.97460938 C-185.50730713 81.13429199 -184.95309082 81.29397461 -184.38208008 81.45849609 C-165.89068148 86.79633525 -147.45739869 92.31714774 -129.06152344 97.97460938 C-128.01351562 98.29381348 -126.96550781 98.61301758 -125.88574219 98.94189453 C-123.31422061 99.72926741 -120.74936304 100.53450426 -118.18652344 101.34960938 C-117.48027832 101.56367432 -116.7740332 101.77773926 -116.04638672 101.99829102 C-113.23880172 102.91446164 -111.25065808 103.79487507 -109.09667969 105.84179688 C-107.82855169 108.45461908 -107.91366561 109.87876097 -108.37402344 112.72460938 C-108.49390625 113.52382812 -108.61378906 114.32304687 -108.73730469 115.14648438 C-108.89779297 116.05140625 -108.89779297 116.05140625 -109.06152344 116.97460938 C-115.01065853 118.05807897 -119.2497491 117.76856815 -124.99511719 115.76367188 C-125.73851349 115.51992325 -126.48190979 115.27617462 -127.24783325 115.02503967 C-128.8421626 114.50125879 -130.43424875 113.9706081 -132.02420044 113.4336853 C-136.24057076 112.0126653 -140.47578897 110.6500753 -144.70996094 109.28320312 C-145.56995193 109.00444839 -146.42994293 108.72569366 -147.31599426 108.43849182 C-155.31685238 105.85943161 -163.36745549 103.4876119 -171.47171021 101.25579834 C-172.89878218 100.8621582 -174.32465196 100.46413169 -175.74923706 100.06158447 C-177.72663439 99.50397461 -179.70752622 98.96148122 -181.69042969 98.42382812 C-183.36214233 97.96496216 -183.36214233 97.96496216 -185.06762695 97.49682617 C-188.11572785 96.96515465 -190.10648172 97.14428693 -193.06152344 97.97460938 C-198.3807552 114.25610853 -198.3807552 114.25610853 -201.99902344 130.97460938 C-202.11479736 131.68407715 -202.23057129 132.39354492 -202.34985352 133.12451172 C-203.08706777 138.10652805 -203.77852688 143.14583024 -202.52668762 148.08468628 C-200.59053486 150.58214005 -198.74034771 150.73913425 -195.70317268 151.18613911 C-194.57670987 151.32337281 -194.57670987 151.32337281 -193.42749023 151.46337891 C-192.23507375 151.63063996 -192.23507375 151.63063996 -191.01856804 151.80128002 C-188.35136395 152.17082535 -185.68142963 152.51402908 -183.01074219 152.85742188 C-181.11461202 153.11459857 -179.21869565 153.37335581 -177.32298279 153.6335907 C-172.19904464 154.33218404 -167.07232445 155.00790564 -161.9447403 155.679142 C-156.62182294 156.37948974 -151.30157731 157.0995875 -145.98095703 157.81713867 C-136.19319856 159.13363842 -126.40293254 160.4303389 -116.61127472 161.71748829 C-109.46993645 162.65641599 -102.32956862 163.60235077 -95.18994141 164.55419922 C-85.35491052 165.86501385 -75.51872026 167.16676559 -65.68124771 168.45912933 C-63.19189042 168.78640378 -60.70267795 169.11476466 -58.21347046 169.44317627 C-54.3215784 169.95590773 -50.4289713 170.4628341 -46.53572273 170.96515846 C-45.12556819 171.14780871 -43.71562889 171.33213033 -42.30593681 171.51831627 C-35.51734498 172.41349035 -28.91341785 173.21327813 -22.06152344 172.97460938 C-32.40503752 150.82387639 -66.86820569 137.8934447 -88.26855469 129.29882812 C-90.84852622 128.07559687 -92.38983882 127.26308798 -94.06152344 124.97460938 C-94.45144032 120.60754029 -94.52476413 118.66947041 -92.06152344 114.97460938 C-85.50600759 112.93984536 -81.08428429 115.17733281 -75.18652344 117.91210938 C-74.27555908 118.31872803 -73.36459473 118.72534668 -72.42602539 119.14428711 C-69.62804752 120.40073571 -66.84345035 121.68305331 -64.06152344 122.97460938 C-62.75852295 123.57644043 -62.75852295 123.57644043 -61.42919922 124.19042969 C-56.62262246 126.41630034 -51.83497062 128.67860005 -47.06152344 130.97460938 C-40.27760057 123.56415266 -40.27760057 123.56415266 -33.62402344 116.03710938 C-30.19383768 112.0879357 -26.65148826 108.24438633 -23.10864258 104.39672852 C-20.5561189 101.61984568 -18.03176597 98.82488922 -15.56152344 95.97460938 C-12.15474994 92.04371688 -8.63149559 88.22264365 -5.10839844 84.39648438 C-2.555972 81.6196688 -0.03169056 78.8248022 2.43847656 75.97460938 C5.37691721 72.58410094 8.39963958 69.27493955 11.43847656 65.97460938 C15.07076313 62.02892026 18.65551099 58.05003682 22.16894531 53.99804688 C25.71098398 49.94776866 29.3309975 45.96655899 32.93847656 41.97460938 C29.77866076 38.65701355 26.17774327 36.30843242 22.37597656 33.78710938 C21.69083984 33.32369141 21.00570312 32.86027344 20.29980469 32.3828125 C15.52529723 28.60369641 15.52529723 28.60369641 10.83691406 30.91601562 Z M44.42382812 52.22460938 C43.89756836 52.80210937 43.37130859 53.37960938 42.82910156 53.97460938 C42.24298096 54.61035889 41.65686035 55.2461084 41.05297852 55.90112305 C40.43769287 56.58537354 39.82240723 57.26962402 39.18847656 57.97460938 C38.55449951 58.66723877 37.92052246 59.35986816 37.26733398 60.07348633 C33.69509374 63.98808735 30.16489086 67.93809251 26.70800781 71.95507812 C24.32963198 74.66947174 21.88337027 77.32031694 19.43847656 79.97460938 C15.81749763 83.90738468 12.24888548 87.87675161 8.74707031 91.91601562 C5.66068176 95.4290324 2.49218878 98.86760756 -0.65917969 102.32226562 C-2.63094188 104.49921933 -4.57517681 106.69299612 -6.49902344 108.91210938 C-9.46036691 112.32150482 -12.5033894 115.65223031 -15.56152344 118.97460938 C-21.78262136 125.74534136 -27.84588544 132.38822684 -33.06152344 139.97460938 C-31.79308594 140.91820312 -31.79308594 140.91820312 -30.49902344 141.88085938 C-19.63671584 150.03801301 -7.9543584 158.86180685 -4.04174805 172.53955078 C-2.49997713 175.99820511 -2.49997713 175.99820511 -0.22789001 176.77922058 C2.2402166 177.26674552 4.65778829 177.53480176 7.16503906 177.74414062 C8.09329498 177.84821732 9.0215509 177.95229401 9.97793579 178.05952454 C11.95506269 178.27856872 13.93378116 178.48362569 15.91369629 178.67584229 C18.86995033 178.96784082 21.81658245 179.30650384 24.765625 179.66357422 C29.6288683 180.25042238 34.49506809 180.80205116 39.36425781 181.3371582 C42.36097233 181.66734256 45.3567475 182.00530416 48.35253906 182.34375 C50.28477972 182.55840233 52.21706962 182.77261209 54.14941406 182.98632812 C55.47288345 183.13626472 55.47288345 183.13626472 56.8230896 183.28923035 C61.55246899 183.80282824 66.18185312 184.24503985 70.93847656 183.97460938 C72.68947562 182.27078342 72.68947562 182.27078342 73.68847656 179.78710938 C85.80363811 157.15509256 109.98087716 140.805852 133.93847656 132.97460938 C139.97128278 131.27846509 145.91633163 130.37879005 152.12597656 129.59960938 C166.19290822 127.79187545 166.19290822 127.79187545 178.93847656 121.97460938 C178.93847656 121.31460938 178.93847656 120.65460938 178.93847656 119.97460938 C175.12638054 118.22372844 171.31372594 116.47406706 167.50097656 114.72460938 C166.43169922 114.23347656 165.36242187 113.74234375 164.26074219 113.23632812 C162.14745631 112.26693093 160.03240391 111.30137467 157.91552734 110.33984375 C156.02988817 109.47511566 154.15202883 108.59303819 152.28564453 107.6875 C151.49947754 107.31302734 150.71331055 106.93855469 149.90332031 106.55273438 C149.227771 106.22176758 148.55222168 105.89080078 147.85620117 105.54980469 C145.47918883 104.83685229 144.24005691 105.10072809 141.93847656 105.97460938 C139.82414146 107.92500995 137.95760555 110.02289519 136.03613281 112.16210938 C133.60698886 114.2610345 132.11004164 114.7133011 128.93847656 114.97460938 C126.18847656 114.16210938 126.18847656 114.16210938 123.93847656 112.97460938 C122.36391917 109.82549459 122.59048538 107.45452122 122.93847656 103.97460938 C124.40261726 101.71696585 126.0934156 99.95804991 127.93847656 97.97460938 C127.93847656 97.31460938 127.93847656 96.65460938 127.93847656 95.97460938 C126.69963338 95.24693935 125.44679316 94.54306122 124.18847656 93.84960938 C123.49238281 93.45515625 122.79628906 93.06070313 122.07910156 92.65429688 C119.94939792 91.74586425 119.94939792 91.74586425 117.88769531 92.66601562 C115.91208392 93.99232788 114.23372326 95.40840752 112.50097656 97.03710938 C109.70044461 99.47936432 107.79612178 100.97460938 103.93847656 100.97460938 C101.18847656 100.16210938 101.18847656 100.16210938 98.93847656 98.97460938 C97.35856212 95.81478049 97.59426921 93.47405076 97.93847656 89.97460938 C99.3836748 87.36718878 101.03968164 85.30063316 102.93847656 82.97460938 C99.63847656 81.32460937 96.33847656 79.67460937 92.93847656 77.97460938 C92.34679687 78.54050781 91.75511719 79.10640625 91.14550781 79.68945312 C89.96021484 80.78966797 89.96021484 80.78966797 88.75097656 81.91210938 C87.97367187 82.64300781 87.19636719 83.37390625 86.39550781 84.12695312 C83.76997987 86.10131674 82.18395961 86.7072714 78.93847656 86.97460938 C76.18847656 86.16210938 76.18847656 86.16210938 73.93847656 84.97460938 C72.35856212 81.81478049 72.59426921 79.47405076 72.93847656 75.97460938 C74.3836748 73.36718878 76.03968164 71.30063316 77.93847656 68.97460938 C76.70215976 68.08038023 75.44876094 67.20973046 74.18847656 66.34960938 C73.49238281 65.86234375 72.79628906 65.37507813 72.07910156 64.87304688 C69.97569461 63.71708808 69.97569461 63.71708808 67.88769531 64.63476562 C65.9279455 65.98184816 64.2328661 67.40921321 62.50097656 69.03710938 C59.70044461 71.47936432 57.79612178 72.97460938 53.93847656 72.97460938 C51.18847656 72.16210938 51.18847656 72.16210938 48.93847656 70.97460938 C47.33102597 67.7597082 47.53542414 65.54450228 47.93847656 61.97460938 C49.67603148 59.07193017 51.716759 56.52032742 53.93847656 53.97460938 C49.31868417 50.6232531 49.31868417 50.6232531 44.42382812 52.22460938 Z M195.93847656 121.97460938 C195.75414062 122.626875 195.56980469 123.27914062 195.37988281 123.95117188 C193.3923174 129.94036899 191.32003563 133.45082972 185.83691406 136.66601562 C179.75361293 139.41251951 173.35678412 141.19084527 166.93847656 142.97460938 C165.60746063 143.35381258 164.27671491 143.73396603 162.94628906 144.11523438 C161.95371094 144.39882813 160.96113281 144.68242187 159.93847656 144.97460938 C163.39227169 148.42840451 166.88409467 148.19191852 171.56347656 148.28710938 C191.08979379 148.22368173 209.88920647 139.71150645 227.93847656 132.97460938 C228.97117676 132.59046875 230.00387695 132.20632813 231.06787109 131.81054688 C231.97520996 131.4625 232.88254883 131.11445313 233.81738281 130.75585938 C234.59799072 130.45744141 235.37859863 130.15902344 236.18286133 129.8515625 C238.12560198 129.10061813 238.12560198 129.10061813 238.93847656 126.97460938 C224.7615918 123.87921969 210.50302303 121.40838511 195.93847656 121.97460938 Z M247.95410156 141.53710938 C246.54102721 142.08873411 245.12794078 142.6403279 243.71484375 143.19189453 C242.97600952 143.48316223 242.23717529 143.77442993 241.47595215 144.07452393 C226.79162634 149.85257379 212.05365578 155.41305868 196.93847656 159.97460938 C196.27090332 160.17795898 195.60333008 160.38130859 194.91552734 160.59082031 C182.92181208 164.1041634 165.42200897 166.08747104 153.87988281 160.24414062 C148.74023541 156.8832042 144.73401017 153.56567659 141.93847656 147.97460938 C136.34708985 148.48884313 132.15620695 149.96611225 127.18847656 152.53710938 C126.48964355 152.89426025 125.79081055 153.25141113 125.07080078 153.61938477 C111.17289199 160.90053464 98.61323802 171.61241418 88.93847656 183.97460938 C88.93847656 184.63460937 88.93847656 185.29460937 88.93847656 185.97460938 C98.24537589 187.34517849 107.5035335 188.20737789 116.89550781 188.72070312 C117.93947723 188.77851959 118.98344666 188.83633606 120.05905151 188.89590454 C124.40000011 189.1323721 128.74113868 189.36231665 133.08325195 189.57641602 C136.29230424 189.73711714 139.50002192 189.91511628 142.70800781 190.09570312 C143.69227249 190.1395665 144.67653717 190.18342987 145.69062805 190.22862244 C146.59975449 190.28200272 147.50888092 190.335383 148.44555664 190.39038086 C149.64224724 190.45128151 149.64224724 190.45128151 150.8631134 190.51341248 C153.40760745 191.07886183 154.34330138 191.94644775 155.93847656 193.97460938 C156.37207031 195.91210938 156.37207031 195.91210938 156.37597656 197.97460938 C156.40498047 198.99554688 156.40498047 198.99554688 156.43457031 200.03710938 C155.93847656 201.97460938 155.93847656 201.97460938 154.52734375 203.57836914 C150.4792181 205.76162363 146.54424045 205.34778551 142.02050781 205.25195312 C141.03935501 205.24026596 140.05820221 205.2285788 139.0473175 205.21653748 C128.87591615 205.04630205 118.76065931 204.38369957 108.62597656 203.53710938 C107.59870453 203.45324982 106.5714325 203.36939026 105.51303101 203.2829895 C18.7572769 196.12525621 -67.6911523 183.9544899 -153.87734795 171.93941784 C-158.12822442 171.34701821 -162.37939298 170.7567291 -166.63056946 170.16648674 C-169.54464566 169.76073114 -172.45818162 169.351253 -175.3717041 168.94154358 C-184.25540804 167.70182643 -193.10347633 166.54418666 -202.06152344 165.97460938 C-205.3206498 172.29057149 -208.16053203 178.71967365 -210.87402344 185.28710938 C-211.5034082 186.76920898 -211.5034082 186.76920898 -212.14550781 188.28125 C-212.53673828 189.22806641 -212.92796875 190.17488281 -213.33105469 191.15039062 C-213.6878833 192.00544189 -214.04471191 192.86049316 -214.41235352 193.74145508 C-215.33121349 196.11299648 -215.33121349 196.11299648 -214.06152344 198.97460938 C-211.62320308 200.53561844 -209.25056837 201.90040021 -206.68652344 203.22460938 C-205.92339844 203.62010986 -205.16027344 204.01561035 -204.37402344 204.4230957 C-168.67800883 222.45641416 -129.07858721 225.13426319 -89.81330597 225.11999309 C-86.26513102 225.11978688 -82.71696391 225.12532854 -79.16879272 225.13005066 C-72.23653369 225.13830964 -65.30428316 225.14110331 -58.37201961 225.14166304 C-52.73132192 225.14214034 -47.090627 225.14420569 -41.44993019 225.14736366 C-25.41583712 225.15615621 -9.3817507 225.16078508 6.6523448 225.16003319 C7.51432443 225.15999323 8.37630407 225.15995328 9.2644043 225.15991211 C10.12745031 225.15987123 10.99049633 225.15983035 11.87969526 225.15978823 C25.86338955 225.15938185 39.84705691 225.16895293 53.83074341 225.18305048 C68.22992512 225.19745107 82.62909373 225.20431868 97.02828282 225.2034567 C105.09600317 225.20312607 113.16369526 225.20581438 121.23140907 225.21663475 C128.09958477 225.22578826 134.96771937 225.2278754 141.83589856 225.22112533 C145.33184651 225.2178848 148.82771585 225.21771286 152.32365608 225.22647858 C178.92202233 225.29766593 178.92202233 225.29766593 205.06347656 220.78710938 C205.888396 220.57352783 206.71331543 220.35994629 207.56323242 220.13989258 C224.07591003 215.65435926 239.63665571 208.20233903 249.93847656 193.97460938 C249.93847656 193.31460938 249.93847656 192.65460938 249.93847656 191.97460938 C248.96394531 192.20535156 247.98941406 192.43609375 246.98535156 192.67382812 C192.56512233 205.28939688 192.56512233 205.28939688 175.93847656 202.97460938 C173.77042991 201.47223163 173.08051129 200.60928707 172.50488281 198.03710938 C172.50359375 197.35648438 172.50230469 196.67585938 172.50097656 195.97460938 C172.47197266 194.95367187 172.47197266 194.95367187 172.44238281 193.91210938 C173.16454553 191.09169436 174.47961409 190.47772935 176.93847656 188.97460938 C179.77807617 188.36206055 179.77807617 188.36206055 183.09082031 188.01757812 C184.32783691 187.87787598 185.56485352 187.73817383 186.83935547 187.59423828 C187.49655579 187.52440735 188.1537561 187.45457642 188.83087158 187.38262939 C205.10186323 185.62815741 221.00153513 182.72530427 236.93847656 178.97460938 C238.00565918 178.72420898 239.0728418 178.47380859 240.17236328 178.21582031 C243.12557963 177.50363137 246.06407462 176.75106736 249.00097656 175.97460938 C249.85771973 175.7620752 250.71446289 175.54954102 251.59716797 175.33056641 C255.76170156 174.15915764 257.55670418 173.42389393 260.43457031 170.03710938 C263.98224096 162.81276187 264.14624832 154.42596032 262.04394531 146.67773438 C261.0867302 144.06653273 260.07722593 141.51137694 258.93847656 138.97460938 C254.71484983 138.97460938 251.7866993 140.00272187 247.95410156 141.53710938 Z " fill="#000000" transform="translate(233.0615234375,138.025390625)"/>
<path d="M0 0 C3.02706748 2.15081111 3.87395791 3.25950274 4.5 6.9375 C3.86162709 10.84753406 3.02791041 12.42627616 0 15 C-2.80141726 15.66017005 -5.19243175 15.60984064 -8 15 C-10.5 13.4375 -10.5 13.4375 -12 11 C-12.46918683 7.24650538 -12.53136381 4.96151547 -10.6875 1.625 C-7.30165512 -1.63544322 -4.27527223 -1.1342559 0 0 Z " fill="#000000" transform="translate(249,180)"/>
</svg>
