<svg version="1.1" id="Layer_1" xmlns="http://www.w3.org/2000/svg" xmlns:xlink="http://www.w3.org/1999/xlink" x="0px" y="0px"
	 width="100%" viewBox="0 0 2000 469" enable-background="new 0 0 2000 469" xml:space="preserve">
<path fill="#000000" opacity="1.000000" stroke="none" 
	d="
M1999.000000,470.000000 
	C1333.962402,470.000000 668.924805,470.000000 3.443102,469.536133 
	C2.999331,313.048157 2.999665,157.024078 3.000000,1.000000 
	C668.037598,1.000000 1333.075195,1.000000 1998.556519,1.463884 
	C1999.000122,157.951843 1999.000122,313.975922 1999.000000,470.000000 
M1326.987305,207.502869 
	C1327.386841,245.330002 1327.127808,283.136536 1323.532837,320.842743 
	C1323.169556,324.652802 1324.222778,329.376373 1322.322876,332.035522 
	C1320.538086,334.533478 1315.711548,334.858124 1311.913086,336.253021 
	C1312.005615,338.171295 1312.106201,340.252472 1312.212158,342.448944 
	C1332.960205,342.448944 1353.226807,342.448944 1373.788818,342.448944 
	C1373.788818,339.837769 1373.788818,337.452698 1373.788818,335.105499 
	C1368.985596,334.402893 1364.446655,333.738953 1359.741821,333.050720 
	C1358.001221,301.688934 1354.125244,270.938751 1355.753906,239.801727 
	C1392.781616,239.801727 1429.489380,239.801727 1467.563843,239.801727 
	C1465.920654,271.203644 1464.299561,302.184052 1462.682373,333.091919 
	C1457.017822,333.875763 1452.484253,334.503082 1447.835815,335.146332 
	C1447.990967,337.940765 1448.115479,340.181122 1448.239624,342.417114 
	C1469.054932,342.417114 1489.323486,342.417114 1509.828125,342.417114 
	C1509.828125,340.071198 1509.828125,337.984314 1509.828125,335.713104 
	C1507.239624,335.099609 1504.667847,334.867920 1502.473755,333.834473 
	C1501.062744,333.169861 1499.344971,331.395752 1499.232544,330.000824 
	C1497.708740,311.074066 1495.634277,292.141846 1495.276001,273.181152 
	C1494.473755,230.709381 1494.311279,188.214828 1498.564331,145.854660 
	C1498.930054,142.212143 1497.816895,137.615097 1499.655396,135.151199 
	C1501.526489,132.643372 1506.198364,132.225357 1509.778320,130.840256 
	C1509.778320,128.957397 1509.778320,126.869125 1509.778320,124.658966 
	C1489.096680,124.658966 1468.700317,124.658966 1448.151855,124.658966 
	C1448.151855,127.275726 1448.151855,129.556656 1448.151855,131.874756 
	C1452.906128,132.573257 1457.456665,133.241806 1462.489136,133.981171 
	C1464.115845,161.142639 1465.722168,187.961594 1467.338501,214.948669 
	C1429.259399,214.948669 1392.520386,214.948669 1354.701782,214.948669 
	C1356.339478,187.735107 1357.955811,160.877151 1359.577271,133.934525 
	C1364.817383,133.203339 1369.363770,132.568970 1373.784180,131.952179 
	C1373.784180,129.295395 1373.784180,127.035522 1373.784180,124.666306 
	C1353.094849,124.666306 1332.706665,124.666306 1312.264771,124.666306 
	C1312.264771,127.093803 1312.264771,129.175537 1312.264771,131.351700 
	C1314.948853,131.971191 1317.499512,132.229172 1319.739258,133.202682 
	C1321.051758,133.773254 1322.701416,135.429398 1322.784302,136.690216 
	C1324.312622,159.953369 1325.627441,183.230576 1326.987305,207.502869 
M1748.229126,123.906410 
	C1742.951538,124.310623 1737.673950,124.714836 1732.129395,125.139503 
	C1732.129395,127.472885 1732.129395,129.561127 1732.129395,131.950226 
	C1736.185791,132.633728 1740.323730,133.068604 1744.289185,134.141327 
	C1745.678101,134.517075 1747.568237,136.395935 1747.660767,137.699753 
	C1748.886963,154.972275 1750.719360,172.267044 1750.673218,189.551636 
	C1750.562378,231.006027 1749.568359,272.458496 1748.840942,313.910217 
	C1748.745728,319.329742 1748.120239,324.739990 1747.726685,330.348450 
	C1743.955933,330.348450 1740.646118,330.348450 1737.116821,330.348450 
	C1736.893188,332.680206 1736.691040,334.787140 1736.457153,337.225555 
	C1762.280396,344.511993 1788.198975,349.817993 1814.875244,347.492584 
	C1842.067505,345.122223 1861.717285,330.688141 1872.123047,305.557678 
	C1883.234253,278.723511 1882.172974,251.312958 1869.769531,225.186874 
	C1855.338745,194.790222 1824.595093,184.959198 1795.192505,200.325317 
	C1789.548584,203.274918 1784.458130,207.283295 1777.907837,211.596329 
	C1779.265015,180.956100 1780.584839,151.160965 1781.914429,121.142532 
	C1770.681519,122.070763 1759.919556,122.960060 1748.229126,123.906410 
M235.513916,143.223389 
	C239.700165,206.469482 239.294464,269.696747 235.012268,333.085938 
	C231.304550,334.055145 227.808243,334.969086 224.067261,335.946991 
	C224.286209,338.281830 224.480911,340.358124 224.666748,342.339844 
	C245.091888,342.339844 264.973907,342.339844 285.046997,342.339844 
	C285.178070,339.737823 285.292053,337.474426 285.408478,335.162964 
	C279.711914,334.429657 274.499329,333.758636 269.252625,333.083252 
	C269.025909,328.923615 268.753876,325.276947 268.639740,321.625305 
	C267.744873,293.000092 266.855164,264.374542 266.081604,235.745956 
	C266.043549,234.338684 266.677948,232.317764 267.713104,231.567368 
	C280.738007,222.125488 294.718170,216.082535 311.433502,218.888626 
	C325.139923,221.189575 333.934143,230.002274 333.908600,243.839767 
	C333.870178,264.648834 333.135376,285.459595 332.491089,306.263245 
	C332.214172,315.204742 331.422089,324.130219 330.858368,333.154358 
	C325.589722,333.837646 320.675079,334.475006 315.408997,335.157959 
	C315.609436,337.824158 315.787048,340.186981 315.954559,342.415039 
	C336.023132,342.415039 355.443542,342.415039 375.156403,342.415039 
	C375.325592,340.111176 375.476990,338.049988 375.636200,335.882111 
	C371.797974,334.896515 368.453766,334.037750 365.083588,333.172333 
	C364.956512,331.941284 364.795776,330.958221 364.761749,329.970764 
	C363.826355,302.843689 362.925385,275.715424 361.960785,248.589386 
	C361.771637,243.271240 361.612396,237.929459 360.979919,232.653656 
	C358.477844,211.782394 346.231384,198.018692 326.785309,194.317535 
	C313.632172,191.814102 300.815399,193.439590 288.873901,199.433975 
	C281.109924,203.331329 273.832153,208.197235 265.320465,213.229965 
	C266.671143,182.301514 268.001648,151.835175 269.340729,121.172279 
	C253.704391,122.519524 238.499847,123.829552 223.108734,125.155663 
	C223.108734,127.647209 223.108734,129.751144 223.108734,131.914291 
	C227.096634,132.829285 230.942657,133.711731 234.850250,134.608292 
	C235.053131,137.353500 235.236176,139.830124 235.513916,143.223389 
M1549.792725,206.726791 
	C1552.670654,207.312881 1555.548584,207.898987 1558.431274,208.486038 
	C1558.586670,209.759109 1558.745850,210.570068 1558.776367,211.385818 
	C1559.811035,239.001389 1560.804810,266.618530 1561.881958,294.232391 
	C1562.095825,299.711060 1562.149048,305.260651 1563.092651,310.634186 
	C1566.093628,327.722687 1574.460449,340.773315 1592.018677,345.893280 
	C1604.025024,349.394348 1616.245728,349.093018 1627.805786,344.467590 
	C1637.114014,340.743164 1645.856323,335.604340 1654.806885,331.114563 
	C1654.588379,335.541779 1654.338989,340.595062 1654.061035,346.226807 
	C1669.871460,344.875427 1685.193237,343.565857 1700.698364,342.240601 
	C1700.698364,339.606415 1700.698364,337.512085 1700.698364,335.410583 
	C1696.619629,334.506042 1692.782837,333.655151 1689.332520,332.889984 
	C1683.613037,286.789795 1685.868042,241.110260 1689.366943,195.070007 
	C1673.342651,196.448044 1658.149658,197.754608 1642.651367,199.087418 
	C1642.473389,201.408936 1642.311768,203.515045 1642.136597,205.799637 
	C1646.311890,206.732178 1650.173950,207.594711 1654.092407,208.469879 
	C1654.295044,209.202225 1654.589111,209.823715 1654.625732,210.460052 
	C1656.489868,242.864441 1659.581665,275.256104 1655.930786,307.723969 
	C1655.760132,309.241089 1654.536987,311.045868 1653.262573,311.968903 
	C1642.721802,319.602997 1631.107544,323.735291 1617.844238,323.060272 
	C1599.400635,322.121552 1589.611694,312.909393 1589.735718,294.569397 
	C1589.890991,271.599030 1590.857544,248.632462 1591.608154,225.668640 
	C1591.938232,215.571594 1592.600098,205.485397 1593.126709,195.088623 
	C1577.329224,196.452026 1562.140015,197.762939 1546.089478,199.148178 
	C1547.733398,201.748489 1543.669434,205.457794 1549.792725,206.726791 
M460.499939,271.130981 
	C485.285858,271.130981 510.071747,271.130981 534.947266,271.130981 
	C534.947266,259.407532 536.024048,248.010239 534.720642,236.891937 
	C532.093872,214.484009 519.599915,201.146164 497.668152,196.015182 
	C490.757874,194.398514 483.541138,193.550278 476.440399,193.383545 
	C446.984772,192.691940 425.404572,205.756348 413.025879,232.410522 
	C401.641907,256.922821 401.290863,282.547272 410.491974,307.718750 
	C418.155029,328.682556 433.710876,342.154938 455.802307,346.369568 
	C465.136353,348.150299 475.091522,348.149933 484.593109,347.216431 
	C497.387756,345.959381 510.016937,343.018127 523.392944,340.681702 
	C525.252380,342.685516 524.130554,350.137695 531.803772,347.149963 
	C530.976257,330.755005 530.148254,314.350433 529.300110,297.546753 
	C527.018799,297.406189 525.131409,297.289917 523.245605,297.173737 
	C522.467407,301.446045 521.942932,305.247131 521.022400,308.949768 
	C520.624329,310.550751 519.761780,312.416687 518.507263,313.362915 
	C509.918823,319.840973 500.439392,324.693146 489.825378,326.690125 
	C475.072571,329.465729 461.018463,327.999969 450.172638,316.323792 
	C438.503845,303.761688 435.647308,288.103302 435.719238,271.130981 
	C443.909302,271.130981 451.704620,271.130981 460.499939,271.130981 
M1234.890259,345.391785 
	C1242.176880,342.277832 1250.082153,340.120117 1256.639282,335.878448 
	C1280.387695,320.515991 1282.686279,289.877991 1261.474854,271.260590 
	C1255.730225,266.218445 1248.530151,262.595306 1241.552856,259.249268 
	C1229.002930,253.230835 1215.981934,248.195496 1203.427979,242.184830 
	C1197.250366,239.227036 1193.193359,234.151001 1194.495483,226.494339 
	C1195.808594,218.773575 1201.174438,215.408920 1208.180664,213.907944 
	C1222.311890,210.880600 1235.470459,214.885788 1248.689331,219.233459 
	C1255.854126,221.589905 1261.409546,224.546631 1260.526611,233.365448 
	C1260.418335,234.446136 1260.936523,235.589569 1261.188354,236.820908 
	C1263.189331,236.820908 1265.086426,236.820908 1267.128906,236.820908 
	C1267.841919,220.773315 1268.542114,205.018372 1269.244263,189.216446 
	C1266.901123,189.216446 1265.124146,189.216446 1263.490356,189.216446 
	C1262.318726,191.999710 1261.247925,194.543045 1260.427246,196.492676 
	C1250.391846,195.386734 1241.011841,193.768967 1231.587036,193.440002 
	C1213.784424,192.818604 1196.823486,195.980042 1182.005249,206.887772 
	C1169.442383,216.135483 1165.267334,228.203217 1168.831177,243.296982 
	C1171.283813,253.683777 1177.547729,261.450012 1186.217651,266.752136 
	C1194.659546,271.914856 1203.995972,275.616577 1212.946167,279.946075 
	C1221.596924,284.130768 1230.458008,287.934265 1238.845825,292.591248 
	C1245.231323,296.136475 1248.604248,302.097321 1247.889282,309.684723 
	C1247.168579,317.332306 1242.423706,322.242737 1235.640869,324.691498 
	C1217.570923,331.214996 1200.427124,327.002014 1183.531250,319.870758 
	C1183.982544,314.689545 1184.384521,310.076538 1184.806030,305.238190 
	C1182.937622,304.824646 1181.217529,304.443939 1179.104248,303.976227 
	C1174.157959,318.874542 1169.281006,333.563995 1164.339722,348.447205 
	C1166.662354,349.127808 1168.209351,349.581116 1169.718140,350.023254 
	C1170.532104,349.091522 1171.391357,348.441284 1171.805908,347.577698 
	C1173.985962,343.036865 1177.402100,343.253021 1181.643677,344.290771 
	C1199.003540,348.537964 1216.507446,349.448273 1234.890259,345.391785 
M627.586548,215.077301 
	C625.638062,217.354279 623.806702,219.746231 621.713074,221.880844 
	C618.703125,224.949707 618.523010,227.744522 621.600647,230.934937 
	C624.602417,234.046722 627.156311,237.592163 630.174927,240.685684 
	C656.889893,268.063263 675.798157,301.063660 697.209106,333.098389 
	C691.830750,333.822235 686.996521,334.472870 682.221069,335.115601 
	C682.221069,337.685089 682.221069,339.943787 682.221069,342.336304 
	C705.375366,342.336304 728.239807,342.336304 751.376709,342.336304 
	C751.547913,340.065948 751.695007,338.115479 751.853638,336.012238 
	C750.486023,335.611786 749.404541,335.097565 748.287231,335.001587 
	C742.925171,334.541016 739.405701,331.607056 736.136292,327.449341 
	C722.863770,310.570465 709.289551,293.928772 695.827576,277.198853 
	C680.621704,258.301758 665.416809,239.403915 650.115723,220.387390 
	C651.410767,218.986786 652.527466,217.764893 653.659180,216.557098 
	C675.637146,193.102417 697.589844,169.624084 719.613037,146.212021 
	C725.887512,139.541824 730.983582,131.059097 742.091858,131.669205 
	C741.903198,128.792557 741.767090,126.717064 741.630371,124.632195 
	C718.872681,124.632195 696.631104,124.632195 674.182068,124.632195 
	C674.182068,127.220924 674.182068,129.499390 674.182068,131.856781 
	C676.622437,132.219254 678.908081,132.562347 681.194824,132.897400 
	C683.542664,133.241364 685.891602,133.577469 688.750244,133.990799 
	C687.454163,136.044098 686.553345,137.415512 685.707092,138.819855 
	C669.236877,166.152679 649.296021,190.841293 627.586548,215.077301 
M867.605103,221.119263 
	C864.025818,227.646255 859.452759,233.828873 857.049500,240.763428 
	C849.172180,263.494049 850.023499,286.398041 859.178467,308.560944 
	C866.891663,327.233459 880.597839,339.966278 900.421021,345.469116 
	C911.011475,348.408997 921.825256,348.684540 932.633423,347.457794 
	C941.653748,346.434021 950.601929,344.773987 959.747559,343.370331 
	C959.747559,346.005524 959.747559,348.781677 959.747559,351.779297 
	C962.188843,351.779297 964.442566,351.779297 966.784424,351.779297 
	C970.488831,334.931122 974.155396,318.254852 977.900574,301.221191 
	C975.653442,300.713165 973.624084,300.254395 971.451172,299.763153 
	C969.664856,303.898438 968.639771,308.150208 966.221069,311.347717 
	C963.752441,314.611145 960.146606,317.210815 956.610840,319.414886 
	C953.123718,321.588623 949.112610,322.930237 945.305298,324.576630 
	C944.245422,325.035004 943.099731,325.303192 941.982178,325.618774 
	C916.339905,332.859283 896.255554,323.204041 887.661072,298.791260 
	C881.157837,280.318726 880.976807,261.480865 887.857605,243.014832 
	C895.404358,222.761368 910.860596,212.135284 930.618713,214.299286 
	C938.895203,215.205750 946.913269,218.551300 955.022461,220.879807 
	C961.443481,222.723587 965.254395,226.452606 964.166931,233.763870 
	C963.936401,235.313950 964.485291,236.979919 964.670898,238.557175 
	C966.880798,238.557175 968.643250,238.557175 970.715576,238.557175 
	C971.550720,221.921280 972.373230,205.538300 973.196533,189.138641 
	C970.933838,189.138641 969.290649,189.138641 967.502441,189.138641 
	C966.463379,191.748672 965.451477,194.290405 964.598206,196.433685 
	C955.818237,195.437256 947.586548,194.143875 939.306519,193.628967 
	C911.564148,191.903748 886.706970,198.121765 867.605103,221.119263 
M594.500305,124.319618 
	C587.242615,124.319618 579.984924,124.319618 572.500488,124.319618 
	C572.335510,126.987846 572.214722,128.941742 572.079834,131.123138 
	C575.842590,132.084915 579.344360,132.979965 582.778015,133.857620 
	C589.063416,200.487091 589.030457,266.790161 582.769226,333.147705 
	C579.049011,334.132996 575.591919,335.048584 572.020813,335.994354 
	C572.249817,338.419922 572.432129,340.351135 572.625671,342.400696 
	C592.112854,342.400696 611.183044,342.400696 630.584473,342.400696 
	C630.584473,340.060669 630.584473,337.997040 630.584473,335.699921 
	C627.925049,335.088531 625.247131,334.749481 622.811279,333.793671 
	C621.631836,333.330841 620.161438,331.759888 620.085388,330.607422 
	C618.573486,307.675598 616.765991,284.747101 616.024170,261.785431 
	C615.351868,240.977524 615.350098,220.113419 616.028259,199.305893 
	C616.737915,177.532990 618.610352,155.797989 619.978699,133.979507 
	C623.851746,132.975891 627.343262,132.071152 631.021362,131.118042 
	C630.833862,128.713791 630.672363,126.643463 630.491150,124.319633 
	C618.457397,124.319633 606.978821,124.319633 594.500305,124.319618 
M1051.635986,126.466873 
	C1051.635986,124.840996 1051.635986,123.215126 1051.635986,121.171715 
	C1036.085327,122.510811 1020.770264,123.829620 1005.263184,125.164955 
	C1005.263184,127.604500 1005.263184,129.562790 1005.263184,131.909424 
	C1007.180908,132.328323 1009.229797,133.068741 1011.310059,133.171036 
	C1016.045715,133.403885 1018.072449,135.675766 1017.659546,140.375626 
	C1017.529785,141.852646 1017.781555,143.368118 1017.907410,144.861893 
	C1021.158203,183.436981 1020.752075,222.102997 1020.313293,260.743073 
	C1020.058105,283.212494 1018.424316,305.664124 1017.630615,328.131531 
	C1017.486938,332.198242 1016.196411,334.257019 1012.033081,334.447815 
	C1006.661926,334.694031 1005.223022,337.494843 1007.326233,342.411316 
	C1028.849365,342.411316 1050.410767,342.411316 1072.327515,342.411316 
	C1072.498657,340.126678 1072.651489,338.086212 1072.819580,335.842255 
	C1065.226074,334.893402 1058.204712,334.016052 1051.210083,333.142059 
	C1046.572754,264.162140 1047.038208,195.761566 1051.635986,126.466873 
M153.137436,177.613235 
	C147.124741,190.021317 141.451248,202.784088 125.113579,204.389786 
	C124.957161,204.405151 124.755745,204.483109 124.668747,204.600861 
	C124.061020,205.423370 123.022522,206.235611 122.968163,207.104095 
	C122.765083,210.349030 122.886978,213.614304 122.886978,216.802887 
	C129.427292,216.802887 135.327545,216.802887 141.471100,216.802887 
	C141.471100,218.608612 141.493057,220.083176 141.467865,221.556931 
	C141.020706,247.718414 140.493256,273.878876 140.172455,300.041901 
	C140.099136,306.021698 140.446991,312.041656 141.098801,317.988586 
	C142.868393,334.133392 150.252579,343.671814 163.852844,346.593964 
	C178.238892,349.684998 192.272919,348.112274 205.774353,341.928070 
	C210.041107,339.973755 211.087952,337.451691 208.669556,333.106293 
	C203.489746,333.106293 198.173218,333.207489 192.861710,333.087433 
	C176.437759,332.716248 171.138336,327.644958 169.993881,311.365936 
	C169.958817,310.867218 169.916946,310.367615 169.913834,309.868225 
	C169.719849,278.876923 169.528214,247.885605 169.360489,216.894165 
	C169.358994,216.617935 169.682663,216.339935 170.093781,215.676849 
	C181.105865,215.188629 192.375031,214.689011 203.921478,214.177109 
	C204.534729,209.020126 205.112762,204.159409 205.757446,198.738235 
	C193.450150,198.738235 181.537582,198.738235 169.399460,198.738235 
	C168.631851,186.510895 167.895462,174.780869 167.170425,163.231522 
	C162.827438,161.759354 160.580353,163.308563 158.978958,166.901672 
	C157.427704,170.382294 155.371826,173.638016 153.137436,177.613235 
M1119.229248,227.729401 
	C1120.654053,226.328323 1121.994873,224.827896 1123.517334,223.542664 
	C1131.673706,216.657440 1136.991699,205.701202 1149.986816,205.861557 
	C1149.847656,203.161133 1149.741333,201.096481 1149.636230,199.054840 
	C1127.801880,199.054840 1106.554688,199.054840 1085.087158,199.054840 
	C1085.087158,201.543945 1085.087158,203.788437 1085.087158,206.264435 
	C1090.265015,206.901642 1095.241455,207.514069 1100.479492,208.158676 
	C1092.791016,221.742691 1084.236572,233.666641 1072.804688,243.396683 
	C1067.995483,247.489868 1063.646484,252.124802 1059.100464,256.526031 
	C1053.602783,261.848633 1053.619995,261.845306 1058.209473,267.709717 
	C1076.222534,290.726624 1095.487427,312.892212 1107.446533,340.031525 
	C1107.647339,340.487061 1107.795654,341.069122 1108.157349,341.328796 
	C1108.910400,341.869354 1109.788452,342.609619 1110.618286,342.613739 
	C1125.903809,342.690002 1141.189819,342.669586 1156.757568,342.669586 
	C1156.757568,340.132477 1156.757568,338.050690 1156.757568,335.737915 
	C1155.426758,335.436920 1154.161865,335.022400 1152.867188,334.880798 
	C1147.935059,334.341248 1144.544922,331.837250 1141.542969,327.818024 
	C1134.376221,318.222839 1126.707397,309.002869 1119.253052,299.622162 
	C1108.625244,286.248199 1098.007690,272.866028 1087.894409,260.127930 
	C1098.375366,249.279266 1108.547607,238.750031 1119.229248,227.729401 
M809.247864,231.991486 
	C809.919556,219.757294 810.591309,207.523117 811.274780,195.074707 
	C795.292175,196.461212 780.112000,197.778107 764.866333,199.100677 
	C764.698730,201.558578 764.564575,203.526245 764.411133,205.776581 
	C768.575806,206.739532 772.549438,207.658295 776.728210,208.624496 
	C777.809387,228.003159 779.633179,247.106384 779.725525,266.217957 
	C779.815613,284.845428 778.201050,303.484985 777.205627,322.112335 
	C776.635742,332.776947 776.518738,332.767181 766.770081,335.673462 
	C766.505981,335.752136 766.326782,336.115997 766.246948,336.200256 
	C766.246948,338.306671 766.246948,340.252502 766.246948,342.405945 
	C784.610596,342.405945 802.688904,342.405945 820.596191,342.405945 
	C822.541565,337.107941 820.479797,334.610870 815.436035,334.351166 
	C811.462341,334.146515 810.323242,332.177765 810.136230,328.311493 
	C808.599060,296.525818 806.444519,264.755005 809.247864,231.991486 
M770.524170,144.829391 
	C774.553894,154.610306 781.047546,162.051392 791.016846,166.054352 
	C792.425598,166.619995 794.400391,167.042297 795.666321,166.495789 
	C805.284119,162.343552 812.948486,155.968414 816.929443,145.990631 
	C817.577515,144.366333 817.554504,142.100647 816.982971,140.424255 
	C813.382629,129.864914 805.148804,123.965813 795.414795,119.735321 
	C794.612976,119.386856 793.439209,119.265663 792.661865,119.584297 
	C781.325317,124.230782 773.246277,131.909424 770.524170,144.829391 
z"/>
<path fill="#4C6971" opacity="1.000000" stroke="none" 
	d="
M1999.500000,470.000000 
	C1999.000122,313.975922 1999.000122,157.951843 1999.000122,1.463870 
	C1999.666626,1.333305 2000.783691,1.548019 2000.909058,2.023934 
	C2001.196411,3.114928 2001.000000,4.333333 2001.000000,5.500000 
	C2001.000000,158.833328 2001.002808,312.166656 2000.958618,465.500000 
	C2000.958252,467.000122 2000.333496,468.500031 1999.500000,470.000000 
z"/>
<path fill="#4C6971" opacity="1.000000" stroke="none" 
	d="
M2.500000,1.000000 
	C2.999665,157.024078 2.999331,313.048157 2.999501,469.536133 
	C2.333338,469.666656 1.216339,469.451965 1.090956,468.976044 
	C0.803540,467.885101 1.000000,466.666656 1.000000,465.500000 
	C1.000000,312.166687 0.997148,158.833374 1.041394,5.500068 
	C1.041827,3.999953 1.666667,2.500019 2.500000,1.000000 
z"/>
<path fill="#FCFCFC" opacity="1.000000" stroke="none" 
	d="
M1326.987305,207.003845 
	C1325.627441,183.230576 1324.312622,159.953369 1322.784302,136.690216 
	C1322.701416,135.429398 1321.051758,133.773254 1319.739258,133.202682 
	C1317.499512,132.229172 1314.948853,131.971191 1312.264771,131.351700 
	C1312.264771,129.175537 1312.264771,127.093803 1312.264771,124.666306 
	C1332.706665,124.666306 1353.094849,124.666306 1373.784180,124.666306 
	C1373.784180,127.035522 1373.784180,129.295395 1373.784180,131.952179 
	C1369.363770,132.568970 1364.817383,133.203339 1359.577271,133.934525 
	C1357.955811,160.877151 1356.339478,187.735107 1354.701782,214.948669 
	C1392.520386,214.948669 1429.259399,214.948669 1467.338501,214.948669 
	C1465.722168,187.961594 1464.115845,161.142639 1462.489136,133.981171 
	C1457.456665,133.241806 1452.906128,132.573257 1448.151855,131.874756 
	C1448.151855,129.556656 1448.151855,127.275726 1448.151855,124.658966 
	C1468.700317,124.658966 1489.096680,124.658966 1509.778320,124.658966 
	C1509.778320,126.869125 1509.778320,128.957397 1509.778320,130.840256 
	C1506.198364,132.225357 1501.526489,132.643372 1499.655396,135.151199 
	C1497.816895,137.615097 1498.930054,142.212143 1498.564331,145.854660 
	C1494.311279,188.214828 1494.473755,230.709381 1495.276001,273.181152 
	C1495.634277,292.141846 1497.708740,311.074066 1499.232544,330.000824 
	C1499.344971,331.395752 1501.062744,333.169861 1502.473755,333.834473 
	C1504.667847,334.867920 1507.239624,335.099609 1509.828125,335.713104 
	C1509.828125,337.984314 1509.828125,340.071198 1509.828125,342.417114 
	C1489.323486,342.417114 1469.054932,342.417114 1448.239624,342.417114 
	C1448.115479,340.181122 1447.990967,337.940765 1447.835815,335.146332 
	C1452.484253,334.503082 1457.017822,333.875763 1462.682373,333.091919 
	C1464.299561,302.184052 1465.920654,271.203644 1467.563843,239.801727 
	C1429.489380,239.801727 1392.781616,239.801727 1355.753906,239.801727 
	C1354.125244,270.938751 1358.001221,301.688934 1359.741821,333.050720 
	C1364.446655,333.738953 1368.985596,334.402893 1373.788818,335.105499 
	C1373.788818,337.452698 1373.788818,339.837769 1373.788818,342.448944 
	C1353.226807,342.448944 1332.960205,342.448944 1312.212158,342.448944 
	C1312.106201,340.252472 1312.005615,338.171295 1311.913086,336.253021 
	C1315.711548,334.858124 1320.538086,334.533478 1322.322876,332.035522 
	C1324.222778,329.376373 1323.169556,324.652802 1323.532837,320.842743 
	C1327.127808,283.136536 1327.386841,245.330002 1326.987305,207.003845 
z"/>
<path fill="#FCFCFC" opacity="1.000000" stroke="none" 
	d="
M1748.693359,123.877884 
	C1759.919556,122.960060 1770.681519,122.070763 1781.914429,121.142532 
	C1780.584839,151.160965 1779.265015,180.956100 1777.907837,211.596329 
	C1784.458130,207.283295 1789.548584,203.274918 1795.192505,200.325317 
	C1824.595093,184.959198 1855.338745,194.790222 1869.769531,225.186874 
	C1882.172974,251.312958 1883.234253,278.723511 1872.123047,305.557678 
	C1861.717285,330.688141 1842.067505,345.122223 1814.875244,347.492584 
	C1788.198975,349.817993 1762.280396,344.511993 1736.457153,337.225555 
	C1736.691040,334.787140 1736.893188,332.680206 1737.116821,330.348450 
	C1740.646118,330.348450 1743.955933,330.348450 1747.726685,330.348450 
	C1748.120239,324.739990 1748.745728,319.329742 1748.840942,313.910217 
	C1749.568359,272.458496 1750.562378,231.006027 1750.673218,189.551636 
	C1750.719360,172.267044 1748.886963,154.972275 1747.660767,137.699753 
	C1747.568237,136.395935 1745.678101,134.517075 1744.289185,134.141327 
	C1740.323730,133.068604 1736.185791,132.633728 1732.129395,131.950226 
	C1732.129395,129.561127 1732.129395,127.472885 1732.129395,125.139503 
	C1737.673950,124.714836 1742.951538,124.310623 1748.693359,123.877884 
M1845.706543,248.058487 
	C1843.375854,242.038223 1841.671875,235.671295 1838.576172,230.074142 
	C1833.112549,220.195770 1824.749878,214.000854 1812.937256,213.646362 
	C1798.646484,213.217499 1788.499268,220.993881 1779.435791,230.772476 
	C1778.765137,231.495895 1778.615112,232.931671 1778.632446,234.029816 
	C1779.104736,263.987305 1779.630615,293.943939 1780.159302,324.582764 
	C1789.381836,325.826904 1797.560669,327.581757 1805.797119,327.917664 
	C1829.320190,328.876984 1841.673218,318.752380 1846.142212,295.557953 
	C1849.140869,279.994385 1848.679443,264.427643 1845.706543,248.058487 
z"/>
<path fill="#FCFCFC" opacity="1.000000" stroke="none" 
	d="
M235.466568,142.765076 
	C235.236176,139.830124 235.053131,137.353500 234.850250,134.608292 
	C230.942657,133.711731 227.096634,132.829285 223.108734,131.914291 
	C223.108734,129.751144 223.108734,127.647209 223.108734,125.155663 
	C238.499847,123.829552 253.704391,122.519524 269.340729,121.172279 
	C268.001648,151.835175 266.671143,182.301514 265.320465,213.229965 
	C273.832153,208.197235 281.109924,203.331329 288.873901,199.433975 
	C300.815399,193.439590 313.632172,191.814102 326.785309,194.317535 
	C346.231384,198.018692 358.477844,211.782394 360.979919,232.653656 
	C361.612396,237.929459 361.771637,243.271240 361.960785,248.589386 
	C362.925385,275.715424 363.826355,302.843689 364.761749,329.970764 
	C364.795776,330.958221 364.956512,331.941284 365.083588,333.172333 
	C368.453766,334.037750 371.797974,334.896515 375.636200,335.882111 
	C375.476990,338.049988 375.325592,340.111176 375.156403,342.415039 
	C355.443542,342.415039 336.023132,342.415039 315.954559,342.415039 
	C315.787048,340.186981 315.609436,337.824158 315.408997,335.157959 
	C320.675079,334.475006 325.589722,333.837646 330.858368,333.154358 
	C331.422089,324.130219 332.214172,315.204742 332.491089,306.263245 
	C333.135376,285.459595 333.870178,264.648834 333.908600,243.839767 
	C333.934143,230.002274 325.139923,221.189575 311.433502,218.888626 
	C294.718170,216.082535 280.738007,222.125488 267.713104,231.567368 
	C266.677948,232.317764 266.043549,234.338684 266.081604,235.745956 
	C266.855164,264.374542 267.744873,293.000092 268.639740,321.625305 
	C268.753876,325.276947 269.025909,328.923615 269.252625,333.083252 
	C274.499329,333.758636 279.711914,334.429657 285.408478,335.162964 
	C285.292053,337.474426 285.178070,339.737823 285.046997,342.339844 
	C264.973907,342.339844 245.091888,342.339844 224.666748,342.339844 
	C224.480911,340.358124 224.286209,338.281830 224.067261,335.946991 
	C227.808243,334.969086 231.304550,334.055145 235.012268,333.085938 
	C239.294464,269.696747 239.700165,206.469482 235.466568,142.765076 
z"/>
<path fill="#FCFCFC" opacity="1.000000" stroke="none" 
	d="
M1549.395752,206.607117 
	C1543.669434,205.457794 1547.733398,201.748489 1546.089478,199.148178 
	C1562.140015,197.762939 1577.329224,196.452026 1593.126709,195.088623 
	C1592.600098,205.485397 1591.938232,215.571594 1591.608154,225.668640 
	C1590.857544,248.632462 1589.890991,271.599030 1589.735718,294.569397 
	C1589.611694,312.909393 1599.400635,322.121552 1617.844238,323.060272 
	C1631.107544,323.735291 1642.721802,319.602997 1653.262573,311.968903 
	C1654.536987,311.045868 1655.760132,309.241089 1655.930786,307.723969 
	C1659.581665,275.256104 1656.489868,242.864441 1654.625732,210.460052 
	C1654.589111,209.823715 1654.295044,209.202225 1654.092407,208.469879 
	C1650.173950,207.594711 1646.311890,206.732178 1642.136597,205.799637 
	C1642.311768,203.515045 1642.473389,201.408936 1642.651367,199.087418 
	C1658.149658,197.754608 1673.342651,196.448044 1689.366943,195.070007 
	C1685.868042,241.110260 1683.613037,286.789795 1689.332520,332.889984 
	C1692.782837,333.655151 1696.619629,334.506042 1700.698364,335.410583 
	C1700.698364,337.512085 1700.698364,339.606415 1700.698364,342.240601 
	C1685.193237,343.565857 1669.871460,344.875427 1654.061035,346.226807 
	C1654.338989,340.595062 1654.588379,335.541779 1654.806885,331.114563 
	C1645.856323,335.604340 1637.114014,340.743164 1627.805786,344.467590 
	C1616.245728,349.093018 1604.025024,349.394348 1592.018677,345.893280 
	C1574.460449,340.773315 1566.093628,327.722687 1563.092651,310.634186 
	C1562.149048,305.260651 1562.095825,299.711060 1561.881958,294.232391 
	C1560.804810,266.618530 1559.811035,239.001389 1558.776367,211.385818 
	C1558.745850,210.570068 1558.586670,209.759109 1558.431274,208.486038 
	C1555.548584,207.898987 1552.670654,207.312881 1549.395752,206.607117 
z"/>
<path fill="#FCFCFC" opacity="1.000000" stroke="none" 
	d="
M459.999939,271.130981 
	C451.704620,271.130981 443.909302,271.130981 435.719238,271.130981 
	C435.647308,288.103302 438.503845,303.761688 450.172638,316.323792 
	C461.018463,327.999969 475.072571,329.465729 489.825378,326.690125 
	C500.439392,324.693146 509.918823,319.840973 518.507263,313.362915 
	C519.761780,312.416687 520.624329,310.550751 521.022400,308.949768 
	C521.942932,305.247131 522.467407,301.446045 523.245605,297.173737 
	C525.131409,297.289917 527.018799,297.406189 529.300110,297.546753 
	C530.148254,314.350433 530.976257,330.755005 531.803772,347.149963 
	C524.130554,350.137695 525.252380,342.685516 523.392944,340.681702 
	C510.016937,343.018127 497.387756,345.959381 484.593109,347.216431 
	C475.091522,348.149933 465.136353,348.150299 455.802307,346.369568 
	C433.710876,342.154938 418.155029,328.682556 410.491974,307.718750 
	C401.290863,282.547272 401.641907,256.922821 413.025879,232.410522 
	C425.404572,205.756348 446.984772,192.691940 476.440399,193.383545 
	C483.541138,193.550278 490.757874,194.398514 497.668152,196.015182 
	C519.599915,201.146164 532.093872,214.484009 534.720642,236.891937 
	C536.024048,248.010239 534.947266,259.407532 534.947266,271.130981 
	C510.071747,271.130981 485.285858,271.130981 459.999939,271.130981 
M480.090454,213.961288 
	C455.249756,210.873428 437.941162,223.425690 436.852692,251.946457 
	C459.875580,251.946457 482.898499,251.946457 505.897369,251.946457 
	C506.885406,229.152512 499.292633,217.743805 480.090454,213.961288 
z"/>
<path fill="#FCFCFC" opacity="1.000000" stroke="none" 
	d="
M1234.498291,345.533844 
	C1216.507446,349.448273 1199.003540,348.537964 1181.643677,344.290771 
	C1177.402100,343.253021 1173.985962,343.036865 1171.805908,347.577698 
	C1171.391357,348.441284 1170.532104,349.091522 1169.718140,350.023254 
	C1168.209351,349.581116 1166.662354,349.127808 1164.339722,348.447205 
	C1169.281006,333.563995 1174.157959,318.874542 1179.104248,303.976227 
	C1181.217529,304.443939 1182.937622,304.824646 1184.806030,305.238190 
	C1184.384521,310.076538 1183.982544,314.689545 1183.531250,319.870758 
	C1200.427124,327.002014 1217.570923,331.214996 1235.640869,324.691498 
	C1242.423706,322.242737 1247.168579,317.332306 1247.889282,309.684723 
	C1248.604248,302.097321 1245.231323,296.136475 1238.845825,292.591248 
	C1230.458008,287.934265 1221.596924,284.130768 1212.946167,279.946075 
	C1203.995972,275.616577 1194.659546,271.914856 1186.217651,266.752136 
	C1177.547729,261.450012 1171.283813,253.683777 1168.831177,243.296982 
	C1165.267334,228.203217 1169.442383,216.135483 1182.005249,206.887772 
	C1196.823486,195.980042 1213.784424,192.818604 1231.587036,193.440002 
	C1241.011841,193.768967 1250.391846,195.386734 1260.427246,196.492676 
	C1261.247925,194.543045 1262.318726,191.999710 1263.490356,189.216446 
	C1265.124146,189.216446 1266.901123,189.216446 1269.244263,189.216446 
	C1268.542114,205.018372 1267.841919,220.773315 1267.128906,236.820908 
	C1265.086426,236.820908 1263.189331,236.820908 1261.188354,236.820908 
	C1260.936523,235.589569 1260.418335,234.446136 1260.526611,233.365448 
	C1261.409546,224.546631 1255.854126,221.589905 1248.689331,219.233459 
	C1235.470459,214.885788 1222.311890,210.880600 1208.180664,213.907944 
	C1201.174438,215.408920 1195.808594,218.773575 1194.495483,226.494339 
	C1193.193359,234.151001 1197.250366,239.227036 1203.427979,242.184830 
	C1215.981934,248.195496 1229.002930,253.230835 1241.552856,259.249268 
	C1248.530151,262.595306 1255.730225,266.218445 1261.474854,271.260590 
	C1282.686279,289.877991 1280.387695,320.515991 1256.639282,335.878448 
	C1250.082153,340.120117 1242.176880,342.277832 1234.498291,345.533844 
z"/>
<path fill="#FBFBFB" opacity="1.000000" stroke="none" 
	d="
M627.814209,214.803650 
	C649.296021,190.841293 669.236877,166.152679 685.707092,138.819855 
	C686.553345,137.415512 687.454163,136.044098 688.750244,133.990799 
	C685.891602,133.577469 683.542664,133.241364 681.194824,132.897400 
	C678.908081,132.562347 676.622437,132.219254 674.182068,131.856781 
	C674.182068,129.499390 674.182068,127.220924 674.182068,124.632195 
	C696.631104,124.632195 718.872681,124.632195 741.630371,124.632195 
	C741.767090,126.717064 741.903198,128.792557 742.091858,131.669205 
	C730.983582,131.059097 725.887512,139.541824 719.613037,146.212021 
	C697.589844,169.624084 675.637146,193.102417 653.659180,216.557098 
	C652.527466,217.764893 651.410767,218.986786 650.115723,220.387390 
	C665.416809,239.403915 680.621704,258.301758 695.827576,277.198853 
	C709.289551,293.928772 722.863770,310.570465 736.136292,327.449341 
	C739.405701,331.607056 742.925171,334.541016 748.287231,335.001587 
	C749.404541,335.097565 750.486023,335.611786 751.853638,336.012238 
	C751.695007,338.115479 751.547913,340.065948 751.376709,342.336304 
	C728.239807,342.336304 705.375366,342.336304 682.221069,342.336304 
	C682.221069,339.943787 682.221069,337.685089 682.221069,335.115601 
	C686.996521,334.472870 691.830750,333.822235 697.209106,333.098389 
	C675.798157,301.063660 656.889893,268.063263 630.174927,240.685684 
	C627.156311,237.592163 624.602417,234.046722 621.600647,230.934937 
	C618.523010,227.744522 618.703125,224.949707 621.713074,221.880844 
	C623.806702,219.746231 625.638062,217.354279 627.814209,214.803650 
z"/>
<path fill="#FCFCFC" opacity="1.000000" stroke="none" 
	d="
M867.820435,220.835846 
	C886.706970,198.121765 911.564148,191.903748 939.306519,193.628967 
	C947.586548,194.143875 955.818237,195.437256 964.598206,196.433685 
	C965.451477,194.290405 966.463379,191.748672 967.502441,189.138641 
	C969.290649,189.138641 970.933838,189.138641 973.196533,189.138641 
	C972.373230,205.538300 971.550720,221.921280 970.715576,238.557175 
	C968.643250,238.557175 966.880798,238.557175 964.670898,238.557175 
	C964.485291,236.979919 963.936401,235.313950 964.166931,233.763870 
	C965.254395,226.452606 961.443481,222.723587 955.022461,220.879807 
	C946.913269,218.551300 938.895203,215.205750 930.618713,214.299286 
	C910.860596,212.135284 895.404358,222.761368 887.857605,243.014832 
	C880.976807,261.480865 881.157837,280.318726 887.661072,298.791260 
	C896.255554,323.204041 916.339905,332.859283 941.982178,325.618774 
	C943.099731,325.303192 944.245422,325.035004 945.305298,324.576630 
	C949.112610,322.930237 953.123718,321.588623 956.610840,319.414886 
	C960.146606,317.210815 963.752441,314.611145 966.221069,311.347717 
	C968.639771,308.150208 969.664856,303.898438 971.451172,299.763153 
	C973.624084,300.254395 975.653442,300.713165 977.900574,301.221191 
	C974.155396,318.254852 970.488831,334.931122 966.784424,351.779297 
	C964.442566,351.779297 962.188843,351.779297 959.747559,351.779297 
	C959.747559,348.781677 959.747559,346.005524 959.747559,343.370331 
	C950.601929,344.773987 941.653748,346.434021 932.633423,347.457794 
	C921.825256,348.684540 911.011475,348.408997 900.421021,345.469116 
	C880.597839,339.966278 866.891663,327.233459 859.178467,308.560944 
	C850.023499,286.398041 849.172180,263.494049 857.049500,240.763428 
	C859.452759,233.828873 864.025818,227.646255 867.820435,220.835846 
z"/>
<path fill="#FBFBFB" opacity="1.000000" stroke="none" 
	d="
M595.000244,124.319626 
	C606.978821,124.319633 618.457397,124.319633 630.491150,124.319633 
	C630.672363,126.643463 630.833862,128.713791 631.021362,131.118042 
	C627.343262,132.071152 623.851746,132.975891 619.978699,133.979507 
	C618.610352,155.797989 616.737915,177.532990 616.028259,199.305893 
	C615.350098,220.113419 615.351868,240.977524 616.024170,261.785431 
	C616.765991,284.747101 618.573486,307.675598 620.085388,330.607422 
	C620.161438,331.759888 621.631836,333.330841 622.811279,333.793671 
	C625.247131,334.749481 627.925049,335.088531 630.584473,335.699921 
	C630.584473,337.997040 630.584473,340.060669 630.584473,342.400696 
	C611.183044,342.400696 592.112854,342.400696 572.625671,342.400696 
	C572.432129,340.351135 572.249817,338.419922 572.020813,335.994354 
	C575.591919,335.048584 579.049011,334.132996 582.769226,333.147705 
	C589.030457,266.790161 589.063416,200.487091 582.778015,133.857620 
	C579.344360,132.979965 575.842590,132.084915 572.079834,131.123138 
	C572.214722,128.941742 572.335510,126.987846 572.500488,124.319618 
	C579.984924,124.319618 587.242615,124.319618 595.000244,124.319626 
z"/>
<path fill="#FBFBFB" opacity="1.000000" stroke="none" 
	d="
M1051.598633,126.916832 
	C1047.038208,195.761566 1046.572754,264.162140 1051.210083,333.142059 
	C1058.204712,334.016052 1065.226074,334.893402 1072.819580,335.842255 
	C1072.651489,338.086212 1072.498657,340.126678 1072.327515,342.411316 
	C1050.410767,342.411316 1028.849365,342.411316 1007.326233,342.411316 
	C1005.223022,337.494843 1006.661926,334.694031 1012.033081,334.447815 
	C1016.196411,334.257019 1017.486938,332.198242 1017.630615,328.131531 
	C1018.424316,305.664124 1020.058105,283.212494 1020.313293,260.743073 
	C1020.752075,222.102997 1021.158203,183.436981 1017.907410,144.861893 
	C1017.781555,143.368118 1017.529785,141.852646 1017.659546,140.375626 
	C1018.072449,135.675766 1016.045715,133.403885 1011.310059,133.171036 
	C1009.229797,133.068741 1007.180908,132.328323 1005.263184,131.909424 
	C1005.263184,129.562790 1005.263184,127.604500 1005.263184,125.164955 
	C1020.770264,123.829620 1036.085327,122.510811 1051.635986,121.171715 
	C1051.635986,123.215126 1051.635986,124.840996 1051.598633,126.916832 
z"/>
<path fill="#FCFCFC" opacity="1.000000" stroke="none" 
	d="
M153.337509,177.302872 
	C155.371826,173.638016 157.427704,170.382294 158.978958,166.901672 
	C160.580353,163.308563 162.827438,161.759354 167.170425,163.231522 
	C167.895462,174.780869 168.631851,186.510895 169.399460,198.738235 
	C181.537582,198.738235 193.450150,198.738235 205.757446,198.738235 
	C205.112762,204.159409 204.534729,209.020126 203.921478,214.177109 
	C192.375031,214.689011 181.105865,215.188629 170.093781,215.676849 
	C169.682663,216.339935 169.358994,216.617935 169.360489,216.894165 
	C169.528214,247.885605 169.719849,278.876923 169.913834,309.868225 
	C169.916946,310.367615 169.958817,310.867218 169.993881,311.365936 
	C171.138336,327.644958 176.437759,332.716248 192.861710,333.087433 
	C198.173218,333.207489 203.489746,333.106293 208.669556,333.106293 
	C211.087952,337.451691 210.041107,339.973755 205.774353,341.928070 
	C192.272919,348.112274 178.238892,349.684998 163.852844,346.593964 
	C150.252579,343.671814 142.868393,334.133392 141.098801,317.988586 
	C140.446991,312.041656 140.099136,306.021698 140.172455,300.041901 
	C140.493256,273.878876 141.020706,247.718414 141.467865,221.556931 
	C141.493057,220.083176 141.471100,218.608612 141.471100,216.802887 
	C135.327545,216.802887 129.427292,216.802887 122.886978,216.802887 
	C122.886978,213.614304 122.765083,210.349030 122.968163,207.104095 
	C123.022522,206.235611 124.061020,205.423370 124.668747,204.600861 
	C124.755745,204.483109 124.957161,204.405151 125.113579,204.389786 
	C141.451248,202.784088 147.124741,190.021317 153.337509,177.302872 
z"/>
<path fill="#FCFCFC" opacity="1.000000" stroke="none" 
	d="
M1118.974609,227.975098 
	C1108.547607,238.750031 1098.375366,249.279266 1087.894409,260.127930 
	C1098.007690,272.866028 1108.625244,286.248199 1119.253052,299.622162 
	C1126.707397,309.002869 1134.376221,318.222839 1141.542969,327.818024 
	C1144.544922,331.837250 1147.935059,334.341248 1152.867188,334.880798 
	C1154.161865,335.022400 1155.426758,335.436920 1156.757568,335.737915 
	C1156.757568,338.050690 1156.757568,340.132477 1156.757568,342.669586 
	C1141.189819,342.669586 1125.903809,342.690002 1110.618286,342.613739 
	C1109.788452,342.609619 1108.910400,341.869354 1108.157349,341.328796 
	C1107.795654,341.069122 1107.647339,340.487061 1107.446533,340.031525 
	C1095.487427,312.892212 1076.222534,290.726624 1058.209473,267.709717 
	C1053.619995,261.845306 1053.602783,261.848633 1059.100464,256.526031 
	C1063.646484,252.124802 1067.995483,247.489868 1072.804688,243.396683 
	C1084.236572,233.666641 1092.791016,221.742691 1100.479492,208.158676 
	C1095.241455,207.514069 1090.265015,206.901642 1085.087158,206.264435 
	C1085.087158,203.788437 1085.087158,201.543945 1085.087158,199.054840 
	C1106.554688,199.054840 1127.801880,199.054840 1149.636230,199.054840 
	C1149.741333,201.096481 1149.847656,203.161133 1149.986816,205.861557 
	C1136.991699,205.701202 1131.673706,216.657440 1123.517334,223.542664 
	C1121.994873,224.827896 1120.654053,226.328323 1118.974609,227.975098 
z"/>
<path fill="#FCFCFC" opacity="1.000000" stroke="none" 
	d="
M809.221252,232.460175 
	C806.444519,264.755005 808.599060,296.525818 810.136230,328.311493 
	C810.323242,332.177765 811.462341,334.146515 815.436035,334.351166 
	C820.479797,334.610870 822.541565,337.107941 820.596191,342.405945 
	C802.688904,342.405945 784.610596,342.405945 766.246948,342.405945 
	C766.246948,340.252502 766.246948,338.306671 766.246948,336.200256 
	C766.326782,336.115997 766.505981,335.752136 766.770081,335.673462 
	C776.518738,332.767181 776.635742,332.776947 777.205627,322.112335 
	C778.201050,303.484985 779.815613,284.845428 779.725525,266.217957 
	C779.633179,247.106384 777.809387,228.003159 776.728210,208.624496 
	C772.549438,207.658295 768.575806,206.739532 764.411133,205.776581 
	C764.564575,203.526245 764.698730,201.558578 764.866333,199.100677 
	C780.112000,197.778107 795.292175,196.461212 811.274780,195.074707 
	C810.591309,207.523117 809.919556,219.757294 809.221252,232.460175 
z"/>
<path fill="#FCFCFC" opacity="1.000000" stroke="none" 
	d="
M770.349121,144.487335 
	C773.246277,131.909424 781.325317,124.230782 792.661865,119.584297 
	C793.439209,119.265663 794.612976,119.386856 795.414795,119.735321 
	C805.148804,123.965813 813.382629,129.864914 816.982971,140.424255 
	C817.554504,142.100647 817.577515,144.366333 816.929443,145.990631 
	C812.948486,155.968414 805.284119,162.343552 795.666321,166.495789 
	C794.400391,167.042297 792.425598,166.619995 791.016846,166.054352 
	C781.047546,162.051392 774.553894,154.610306 770.349121,144.487335 
z"/>
<path fill="#010101" opacity="1.000000" stroke="none" 
	d="
M1845.793579,248.471802 
	C1848.679443,264.427643 1849.140869,279.994385 1846.142212,295.557953 
	C1841.673218,318.752380 1829.320190,328.876984 1805.797119,327.917664 
	C1797.560669,327.581757 1789.381836,325.826904 1780.159302,324.582764 
	C1779.630615,293.943939 1779.104736,263.987305 1778.632446,234.029816 
	C1778.615112,232.931671 1778.765137,231.495895 1779.435791,230.772476 
	C1788.499268,220.993881 1798.646484,213.217499 1812.937256,213.646362 
	C1824.749878,214.000854 1833.112549,220.195770 1838.576172,230.074142 
	C1841.671875,235.671295 1843.375854,242.038223 1845.793579,248.471802 
z"/>
<path fill="#010101" opacity="1.000000" stroke="none" 
	d="
M480.542114,213.992859 
	C499.292633,217.743805 506.885406,229.152512 505.897369,251.946457 
	C482.898499,251.946457 459.875580,251.946457 436.851288,251.950897 
	C437.941162,223.425690 455.249756,210.873428 480.542114,213.992859 
z"/>
</svg>